<svg id="Layer_1" data-name="Layer 1" xmlns="http://www.w3.org/2000/svg" viewBox="0 0 684 684"><defs><style>.cls-1{fill:#fffef9;stroke:#000;stroke-miterlimit:10;stroke-width:19px;}</style></defs><title>Untitled_Artwork (14)</title><circle class="cls-1" cx="342" cy="342" r="332.5"/><path d="M657.92,152.37a19.79,19.79,0,0,0-2.17,2c-4.45,5.48-8.83,11-13.27,16.49Q622.59,195.44,602.66,220q-15.66,19.31-31.35,38.6-25.41,31.34-50.78,62.7c-13.47,16.66-26.79,33.45-40.42,50-9.2,11.16-18.81,22-28.29,32.89-3.3,3.8-6.75,7.46-10.16,11.15a28.69,28.69,0,0,1-2.4,2.06c-1.16-1.55-.54-2.57.2-3.6,4.28-6,8.44-12.16,12.86-18.1,8.69-11.67,17.42-23.31,26.34-34.81s17.89-22.52,26.83-33.79q21.71-27.33,43.37-54.69,18.52-23.31,37.1-46.56c6.94-8.68,14-17.26,20.88-26,5.36-6.78,10.47-13.75,15.83-20.52,6.09-7.67,12.35-15.19,18.49-22.82s12.39-15.6,18.65-23.35a26.94,26.94,0,0,1,4.47-4.46,9.4,9.4,0,0,0,3.32-4.3,13.41,13.41,0,0,1,.85-1.94,2.32,2.32,0,0,1,2.5-1.09,2,2,0,0,1,1.91,1.89,19,19,0,0,1-.15,4.2c-1.5,8.51-3,17-4.67,25.49-1.85,9.35-3.9,18.65-5.85,28-1.29,6.13-2.54,12.27-3.85,18.39-1.45,6.73-3,13.45-4.42,20.17-1.31,5.94-2.6,11.89-3.92,17.83q-2.12,9.44-4.27,18.84-2,8.78-4,17.55-2.18,9.4-4.37,18.82c-1.3,5.58-2.62,11.16-3.92,16.74q-3.1,13.27-6.18,26.56c-1.37,5.93-2.67,11.88-4,17.8-1.94,8.25-3.93,16.48-5.89,24.72-1.32,5.58-2.61,11.16-3.95,16.74-1.42,5.92-2.9,11.83-4.32,17.75-1.34,5.57-2.64,11.16-4,16.73q-3,12.48-6,24.95-2.85,11.7-5.73,23.4-1.93,7.83-3.91,15.66c-1.39,5.56-2.81,11.12-4.18,16.68q-3.07,12.46-6.09,24.94c-1.39,5.75-2.71,11.51-4.06,17.26q-2.1,8.9-4.21,17.77c-1.29,5.41-2.56,10.82-3.91,16.21-1.5,6-3.1,12-4.63,17.93-1.88,7.35-3.77,14.7-5.61,22.06-2.62,10.44-5.19,20.88-7.78,31.33-1.27,5.13-2.41,10.31-3.85,15.4-1.4,4.91-3,9.78-4.73,14.57-1,2.63-2.69,3.56-4.54,3.24S532.2,688.45,532,686a8.76,8.76,0,0,1,0-2.11c.63-3.74,1.27-7.48,2-11.21,1.83-9.72,5-19.11,7.36-28.69,1-4.11,1.74-8.29,2.73-12.41,1.89-7.89,4.56-15.59,5.6-23.69a220.35,220.35,0,0,1,5.41-26.7c1.36-5.3,3-10.53,4.33-15.84,1.83-7.27,3.45-14.59,5.23-21.87,1.51-6.17,3-12.34,4.74-18.45a80.73,80.73,0,0,0,2.83-13.16A161.5,161.5,0,0,1,576,490.54c2.09-8.48,3.82-17.05,5.77-25.56,1.88-8.17,3.84-16.32,5.75-24.48,2-8.33,3.9-16.66,5.88-25,1.92-8.07,3.9-16.12,5.82-24.19,1.35-5.66,2.63-11.34,4-17,1.42-5.91,2.89-11.82,4.34-17.73q2-8.1,3.94-16.2,2.88-11.83,5.78-23.66,2.1-8.61,4.23-17.22l6.06-24.67c1.88-7.62,3.73-15.26,5.63-22.88,2-7.87,4-15.73,6-23.6,1.36-5.39,2.7-10.78,4.09-16.16,1.88-7.26,3.8-14.51,5.71-21.76,1.42-5.37,2.83-10.75,4.27-16.11,1.38-5.11,2.83-10.2,4.19-15.31.54-2,.9-4.07,1.35-6.11Z" transform="translate(-319.5 -49.5)"/><path d="M602.55,151.32c-.56-1.17.27-1.84.93-2.51,4-4.07,8-8.23,12.17-12.16s8.36-7.57,12.72-11.14,8.92-7.23,13.65-10.45q11.24-7.66,22.86-14.75c4.49-2.74,9.36-4.88,14-7.38a113.71,113.71,0,0,1,20.53-8.3c8.78-2.7,17.68-4.95,27-5,5,0,10.06-.07,15.08,0a64,64,0,0,1,30.13,8.1A60.78,60.78,0,0,1,791.31,105,83.55,83.55,0,0,1,805,133.73a131.08,131.08,0,0,1,4.18,44.85A209.78,209.78,0,0,1,803.56,213c-3.41,13.74-8.25,27-13.34,40.14-7.48,19.33-17.29,37.44-28.29,55a341.76,341.76,0,0,1-38.17,49.29,319.73,319.73,0,0,1-25.31,25.17,68.56,68.56,0,0,1-7.24,5.74c-4.68,3.08-11.69,1.74-12.86-5.94a10,10,0,0,1,2.46-8.39,103.09,103.09,0,0,1,7.47-7.46,336.74,336.74,0,0,0,45.89-51.09,431.27,431.27,0,0,0,24.68-37.26,375.82,375.82,0,0,0,18.42-36,195,195,0,0,0,7.05-19.1c2.14-6.63,3.92-13.37,5.7-20.1a181.82,181.82,0,0,0,5-31.05,119.15,119.15,0,0,0-.72-28c-2.17-14.53-7.39-27.76-18-38.39a56.8,56.8,0,0,0-14.75-10.59,64.29,64.29,0,0,0-33.82-6.65,77.87,77.87,0,0,0-17,2.53c-3.71,1.1-7.55,1.73-11.28,2.76-3,.81-5.9,1.8-8.77,2.89-5,1.91-10.08,3.79-15,6s-9.73,4.93-14.62,7.35c-7.93,3.91-15.18,8.93-22.39,14-5.76,4-11.32,8.37-16.82,12.77-5.71,4.57-11.24,9.36-16.84,14.06C604.35,151.24,603.66,152,602.55,151.32Z" transform="translate(-319.5 -49.5)"/></svg>